<?xml version="1.0"?>
<svg width="960" height="480" xmlns="http://www.w3.org/2000/svg" xmlns:svg="http://www.w3.org/2000/svg" xmlns:xlink="http://www.w3.org/1999/xlink">
 <!-- Created with SVG-edit - http://svg-edit.googlecode.com/ -->
 <g>
  <title>Layer 1</title>
  <path opacity="0.7" stroke="#00ffff" d="m118,165c1.800003,0 2.699997,0 3.599998,0c0.900002,0 1.800003,0 2.700005,0c0.899994,0 1.800636,0.033905 2.699997,0c0.758781,-0.028595 1.641113,-0.381546 2.347336,-0.647339c0.882553,-0.332153 1.852661,-0.352661 2.75267,-0.352661c0.899994,0 1.699997,0 2.599991,0c0.900009,0 1.800003,0 2.699997,0c0.900009,0 1.800003,0 2.700012,0c0.899994,0 1.699997,0 2.599991,0c0.900009,0 1.800003,0 2.699997,0c0.900009,0 1.801346,0 2.766678,0c0.669327,0 1.434662,0 2.622665,0c0.725327,0 1.689835,0 2.610657,0c0.900009,0 1.800003,0 2.700012,0c0.899994,0 1.677475,0.127182 2.420822,0.5c0.93782,0.470352 1.702026,0.390076 2.593842,0.783997c0.740021,0.326874 1.521286,0.710663 2.537994,0.716003c0.694656,0.003647 1.711334,0 2.647339,0c0.899994,0 1.800171,0 2.585327,0c0.940002,0 1.947998,0 2.70401,0c0.91066,0 1.810654,0 2.710663,0c0.899994,0 1.800003,0 2.699997,0c0.800003,0 1.699997,0 2.600006,0c0.899994,0 1.799988,0 2.699997,0c0.899994,0 1.800003,0 2.699997,0c0.800003,0 1.699997,0 2.600006,0c0.899994,0 1.799988,-0.000671 2.699997,0c0.899994,0.000671 1.750824,0.300842 2.399994,0.647339c0.84938,0.453354 1.800003,0.352661 2.699997,0.352661l0.900009,0l0.899994,0" id="svg_48" stroke-width="12" fill="none"/>
  <path opacity="0.7" d="m159,170c0,1.800003 0,2.699997 0,3.600006c0,0.799988 0,1.699997 0,2.599991c0,0.900009 0,1.800003 0,2.600006c0,0.899994 0,1.800003 0,2.699997c0,0.899994 0,1.800003 0,2.699997c0,0.900009 0,1.800003 0,2.600006c0,0.899994 0,1.800003 0,2.699997c0,0.899994 0,1.800003 0,2.699997c0,0.900009 0,1.800003 0,2.600006c0,0.899994 0,1.800003 0,2.699997c0,0.899994 0,1.800003 0,2.699997c0,0.900009 0,1.800003 0,2.600006c0,0.899994 0,1.800003 0,2.699997c0,0.899994 0,1.800003 0,2.699997c0,0.900009 0,1.800003 0,2.600006c0,0.899994 0.398209,1.902573 -0.035995,2.763992c-0.35228,0.698883 -0.963333,1.237335 -0.964005,2.136002c-0.000671,0.900009 0,1.800003 0,2.699997c0,0.900009 0,1.800003 0,2.700012c0,0.899994 0,1.699997 0,2.599991c0,0.900009 0,1.800003 0,2.699997c0,0.900009 0,1.800003 0,2.700012c0,0.899994 0,1.699997 0,2.599991c0,0.900009 0,1.800003 0,2.699997c0,0.900009 0,1.800003 0,2.700012c0,0.899994 -0.195953,1.734436 0.057159,2.599991c0.256638,0.87764 0.914246,1.598648 0.942841,2.5c0.028534,0.899551 0,1.800003 0,2.600006c0,0.899994 0,1.800003 0,2.699997c0,0.899994 0,1.800003 0,2.699997c0,0.900009 0,1.800003 0,2.600006c0,0.899994 0,1.800003 0,2.699997c0,0.899994 0,1.799988 0,2.700012c0,0.899994 0,1.799988 0,2.599976c0,0.900024 0,1.800018 0,2.700012c0,0.899994 0,1.799988 0,2.700012c0,0.899994 0,1.799988 0,2.599976c0,0.900024 0,1.800018 0,2.700012c0,0.899994 0,1.799988 0,2.700012c0,0.899994 0,1.799988 0,2.599976c0,0.900024 0,1.800018 0,2.700012c0,0.899994 0,1.799988 0,2.700012c0,0.899994 0.017212,1.800171 0,2.599976c-0.018005,0.836578 -0.31601,1.671234 -0.647339,2.547333c-0.332565,0.879395 -0.964386,1.389801 -1.316666,2.088684c-0.434204,0.86142 0.037048,1.914154 -0.461334,2.538666c-0.485184,0.607971 -0.462646,1.478546 -0.860001,2.226654c-0.401917,0.756714 -1.061417,1.428009 -1.357498,2.145996c-0.403854,0.979309 -1.074158,1.529724 -1.346497,2.263336c-0.309723,0.834259 -0.353088,1.703156 -1.010666,2.389343c-0.587112,0.61264 -1.209,1.191132 -1.800003,1.799988c-0.689835,0.710663 -0.959412,1.551849 -1.225327,2.338684c-0.287903,0.851898 -1.190155,1.129181 -1.774673,1.662659c-0.719696,0.65686 -1.547058,1.035095 -2.300003,1.420013c-0.763184,0.390167 -1.284729,1.090057 -2.066666,1.612c-0.706818,0.471802 -1.66777,-0.029297 -2.533325,0.223816c-0.87764,0.256653 -1.647064,0.779266 -2.400009,1.164185c-0.763184,0.390167 -1.3461,1.017456 -1.983994,1.494659c-0.767914,0.574463 -1.710022,0.379608 -2.416,0.783997c-0.793442,0.454498 -1.769302,0.311127 -2.600006,0.721497c-0.690582,0.341156 -1.198883,1.370728 -2.099991,1.693176c-0.757507,0.271057 -1.600006,0.085327 -2.5,0.085327c-0.900002,0 -1.800003,0 -2.700005,0c-0.904495,0 -1.921333,0 -2.599998,0c-0.9785,0 -1.798668,0 -2.699997,0c-0.900002,0 -1.800003,0 -2.700005,0c-0.908997,0 -1.933334,0 -2.605331,0c-0.744003,0 -1.851669,0 -2.685669,0c-0.908997,0 -1.808998,0 -2.709,0c-0.900002,0 -1.823257,0.096375 -2.766663,-0.166656c-0.681641,-0.190063 -1.656212,-0.730988 -2.422668,-0.822662c-0.904762,-0.108215 -1.61396,-0.553894 -2.510666,-0.889191c-0.850639,-0.318085 -1.690948,-0.222504 -2.400002,-0.62149c-0.878548,-0.494354 -1.394707,-0.975586 -1.852669,-1.799988c-0.412361,-0.74231 -0.76638,-1.479523 -1.222,-2.300018c-0.434219,-0.781952 -0.834213,-1.527313 -1.258667,-2.399994c-0.320847,-0.659668 -0.852203,-1.422546 -1.109497,-2.299988c-0.253784,-0.865479 -0.342125,-1.759583 -0.704498,-2.400024c-0.464409,-0.82077 -1.206917,-1.343964 -1.351334,-2.101318c-0.168335,-0.882782 -0.315834,-1.585815 -0.834671,-2.365326c-0.470879,-0.707458 -0.179504,-1.684021 -0.6875,-2.333344c-0.600395,-0.767426 -1.46949,-0.945923 -2.121994,-1.609833c-0.569016,-0.578949 -0.70491,-1.611145 -1.457001,-2.111664c-0.605003,-0.402618 -0.889442,-1.37851 -0.900169,-2.278503c-0.010605,-0.889343 -0.725594,-1.373901 -0.989334,-2.110657c-0.299767,-0.837372 -0.010666,-1.789337 -0.010666,-2.689331l0,-0.900024l0,-0.899994" id="svg_49" stroke-linecap="null" stroke-linejoin="null" stroke-dasharray="null" stroke-width="12" stroke="#00ffff" fill="none"/>
  <path opacity="0.7" d="m297,171.75c0,0.899994 0.068268,1.748489 -0.213013,2.613007c-0.259583,0.797882 -0.412262,1.66806 -0.536987,2.487c-0.135559,0.889954 -0.748291,1.428375 -0.75,2.399994c-0.001556,0.899994 0,1.725006 0,2.625c0,0.899994 0,1.725006 0,2.699997c0,0.900009 0,1.725006 0,2.625c0,0.900009 0,1.800003 0,2.699997c0,0.900009 0,1.725006 0,2.625c0,0.975006 0,1.800003 0,2.700012c0,0.899994 -0.062042,1.727127 0,2.625c0.062653,0.906464 0.687347,1.643524 0.75,2.549988c0.056885,0.823044 0,1.725006 0,2.625c0,0.825012 0,1.800003 0,2.700012c0,0.824997 0,1.724991 0,2.625c0,0.899994 0,1.799988 0,2.699997c0,0.824997 0,1.724991 0,2.699997c0,0.824997 0,1.725006 0,2.625c0,0.824997 0,1.725006 0,2.699997c0,0.824997 0,1.725006 0,2.625c0,0.824997 0,1.800003 0,2.699997c0,0.825012 0.083405,1.728882 0,2.625c-0.083344,0.895584 -0.742188,1.365524 -0.75,2.25c-0.008606,0.974976 0,1.875 0,2.700012c0,0.899994 0,1.799988 0,2.625c0,0.974991 0,1.875 0,2.699997c0,0.899994 0,1.800003 0,2.699997c0,0.899994 0,1.800003 0,2.625c0,0.899994 0,1.875 0,2.699997c0,0.900009 0,1.800003 0,2.625c0,0.900009 0,1.875 0,2.699997c0,0.900009 0,1.800003 0,2.625c0,0.975006 0,1.875 0,2.700012c0,0.899994 0,1.799988 0,2.625c0,0.975006 0,1.875 0,2.699982c0,0.900024 0,1.800018 0,2.700012c0,0.901001 0,1.740997 0,2.510498c0,1.011139 0,1.989502 0,2.814514c0,0.899994 0,1.799988 0,2.625c0,0.899994 0,1.875 0,2.699982c0,0.899994 0,1.800018 0,2.625c0,0.975006 0,1.875 0,2.700012c0,0.899994 0.122559,1.809143 0,2.625c-0.133728,0.890259 -0.523743,1.485046 -0.875,2.399994c-0.260834,0.679474 -0.625,1.575012 -0.625,2.399994c0,0.899994 0,1.800018 0,2.625c0,0.975006 0,1.875 0,2.700012c0,0.899994 0,1.799988 0,2.625c0,0.975006 0,1.875 0,2.699982c0,0.900024 0,1.800018 0,2.700012c0,0.899994 0,1.799988 0,2.625c0,0.899994 0,1.875 0,2.700012c0,0.899994 0,1.799988 0,2.625c0,0.899994 0,1.875 0,2.699982c0,0.899994 0,1.800018 0,2.625c0,0.975006 0,1.876007 0,2.716003l0,0.769501" id="svg_50" stroke-linecap="null" stroke-linejoin="null" stroke-dasharray="null" stroke-width="12" stroke="#00ffff" fill="none"/>
  <path opacity="0.7" d="m299.25,168.75c1.57489,0.166122 2.008087,0.897812 2.463989,1.649994c0.471924,0.778625 1.271423,1.094955 1.768127,1.875c0.477417,0.749786 0.704376,1.619461 1.142883,2.475006c0.411133,0.802155 1.113586,1.329559 1.371613,2.028381c0.336548,0.911484 0.526703,1.602646 0.75238,2.322617c0.26889,0.857849 0.35437,1.604126 0.813995,2.25c0.513947,0.722198 0.617401,1.683502 1.006012,2.380005c0.367615,0.65889 0.757172,1.428131 1.22049,2.047379c0.520996,0.696365 0.866669,1.524384 1.196014,2.28949c0.377136,0.87619 0.803619,1.475708 1.373871,2.072754c0.626556,0.655991 0.933044,1.487457 1.432617,2.159378c0.563019,0.757233 0.948029,1.409149 1.631012,1.968994c0.664307,0.54454 0.949463,1.411728 1.605377,1.963135c0.714417,0.600601 1.300323,1.058762 1.887604,1.676865c0.561707,0.591202 1.136688,1.109039 1.816132,1.630508c0.719482,0.552216 1.022614,1.355682 1.546265,1.985489c0.608765,0.732208 1.274628,1.268982 1.721619,2.100006c0.400574,0.744736 1.026154,1.318726 1.480988,2.175003c0.385895,0.726517 0.773407,1.553619 1.370026,2.013c0.690125,0.531387 1.12088,1.380768 1.523987,2.186996c0.391205,0.782394 1.086578,1.247864 1.605988,1.826996c0.594208,0.662537 0.698242,1.68335 1.22702,2.373001c0.512848,0.6689 1.305206,1.239105 1.866882,1.875c0.629333,0.712479 0.883972,1.580612 1.574097,2.112c0.596619,0.459381 0.805359,1.414383 1.390503,2.045135c0.610352,0.657928 1.541931,0.954041 1.996521,1.617874c0.530884,0.775269 1.088745,1.257446 1.788879,1.816116c0.688232,0.549194 0.920593,1.462601 1.42511,2.208878c0.400757,0.592758 0.97348,1.395294 1.625,2c0.554108,0.514297 1.011902,1.253647 1.600006,1.850006c0.670776,0.680176 1.268921,1.403671 1.649994,2.024994c0.515839,0.841064 0.800812,1.839478 1.515625,2.234375c0.738342,0.407898 1.447296,0.60379 2.159363,1.092621c0.771423,0.529587 1.24588,1.287354 2.024902,1.832001c0.634064,0.443314 1.276123,0.842331 2.250122,0.841003c0.896606,-0.001221 1.388977,-0.581802 1.882996,-1.199997c0.58551,-0.732697 1.655121,-0.873993 2.214996,-1.507996c0.592712,-0.671188 0.895752,-1.400421 1.436371,-2.167007c0.530853,-0.752747 0.594971,-1.726364 1.180115,-2.357132c0.61026,-0.657867 1.376862,-1.087723 1.83551,-1.767868c0.44519,-0.660202 0.738525,-1.508362 1.346619,-2.167618c0.544495,-0.590332 1.215759,-1.111267 1.597382,-1.882385c0.406708,-0.821838 1.186646,-1.294327 1.612,-1.968994c0.425354,-0.674683 0.672363,-1.436127 1.131989,-2.082001c0.513947,-0.722198 0.729858,-1.743729 1.437012,-2.274002c0.648254,-0.486115 1.117432,-1.049179 1.713989,-1.774002c0.553497,-0.672531 1.23645,-1.019592 1.676636,-1.741623c0.459686,-0.753998 1.030975,-1.345398 1.768372,-2.025375c0.586334,-0.540665 0.843231,-1.487762 1.591003,-1.959c0.740173,-0.466431 1.581116,-0.811386 2.036011,-1.475006c0.531494,-0.775391 1.300964,-1.201523 1.694977,-1.949997c0.383209,-0.727951 0.911652,-1.425034 1.428009,-2.116119c0.52887,-0.707809 0.670959,-1.626831 1.108887,-2.308884c0.499634,-0.778168 1.440338,-1.266708 1.768127,-1.938995c0.424408,-0.870499 0.570282,-1.707916 1.130127,-2.410873c0.548492,-0.688705 0.95285,-1.104462 1.37674,-1.907257c0.399689,-0.756958 1.041748,-1.309494 1.43811,-2.067871c0.426636,-0.81633 1.055176,-1.386673 1.479523,-2.175003c0.426361,-0.792068 0.80896,-1.528732 1.390503,-2.151993c0.563568,-0.603989 1.243591,-1.356964 1.557861,-2.197998c0.290558,-0.777618 0.23349,-1.733093 0.822113,-2.46701c0.462799,-0.577042 1.155365,-1.031769 1.582001,-1.807999c0.44458,-0.808899 1.136078,-1.350952 1.812012,-2.024994c0.599152,-0.597473 1.264465,-1.184021 1.937988,-1.662003c0.694,-0.492523 1.199585,-1.171402 1.827637,-1.712997c0.624451,-0.538513 1.716644,-0.579193 2.282379,-1.207993c0.612152,-0.680405 1.217865,-1.266403 1.826996,-1.792007c0.739136,-0.637802 1.255066,-1.154419 1.826996,-1.792007c0.560242,-0.624557 1.410431,-0.971115 1.923004,-1.598618c0.526215,-0.644196 1.041992,-1.409378 1.472992,-2.159378l0.054016,-0.899994" id="svg_51" stroke-linecap="null" stroke-linejoin="null" stroke-dasharray="null" stroke-width="12" stroke="#00ffff" fill="none"/>
  <path opacity="0.7" d="m409.5,168c0,0.899994 0,1.725006 0,2.625c0,0.899994 0,1.725006 0,2.699997c0,0.900009 0,1.725006 0,2.625c0,0.900009 0,1.800003 0,2.699997c0,0.900009 0,1.725006 0,2.625c0,0.975006 0,1.800003 0,2.700012c0,0.899994 0,1.724991 0,2.625c0,0.974991 0,1.799988 0,2.699997c0,0.899994 0,1.724991 0,2.699997c0,0.899994 0,1.725006 0,2.625c0,0.899994 0,1.725006 0,2.699997c0,0.900009 0.206238,1.755341 -0.027008,2.625c-0.220673,0.8228 -0.721283,1.574997 -0.722992,2.550003c-0.001434,0.824997 0.191437,1.749008 -0.015625,2.625c-0.191315,0.809357 -0.730377,1.574966 -0.734375,2.399994c-0.00473,0.974991 0,1.875 0,2.700012c0,0.899994 0,1.799988 0,2.625c0,0.974991 0,1.875 0,2.699997c0,0.899994 0,1.800003 0,2.699997c0,0.899994 0,1.800003 0,2.625c0,0.899994 -0.103821,1.881577 0.000122,2.699997c0.107361,0.84523 0.717865,1.573288 0.749878,2.475006c0.031952,0.899429 0,1.724991 0,2.699997c0,0.899994 0,1.725006 0,2.625c0,0.899994 0,1.725006 0,2.699997c0,0.900009 0,1.725006 0,2.625c0,0.900009 0,1.800003 0,2.699997c0,0.900009 -0.057343,1.726837 0,2.625c0.062622,0.980988 0.642883,1.557785 0.75,2.550003c0.096619,0.894806 0,1.725006 0,2.625c0,0.900009 0,1.800003 0,2.699997c0,0.900009 0,1.725006 0,2.625c0,0.975006 0,1.800003 0,2.700012c0,0.899994 0,1.725006 0,2.625c0,0.975006 0,1.799988 0,2.699982c0,0.900024 0,1.725006 0,2.700012c0,0.875 0,1.65799 0,2.549011c0,0.836975 0,1.765503 0,2.700989c0,0.932129 0,1.799988 0,2.700012c0,0.899994 0,1.799988 0,2.699982c0,0.899994 0,1.725006 0,2.625c0,0.975006 0,1.800018 0,2.700012c0,0.899994 0,1.725006 0,2.625c0,0.975006 0,1.799988 0,2.699982c0,0.900024 0,1.725006 0,2.700012c0,0.899994 0,1.725006 0,2.625c0,0.899994 0,1.725006 0,2.700012c0,0.899994 0.023376,1.725281 0,2.625c-0.021454,0.825806 -0.616577,1.548584 -0.75,2.549988c-0.108948,0.81778 0,1.725006 0,2.625c0,0.825012 0,1.725006 0,2.700012c0,0.824982 0,1.724976 0,2.625c0,0.824982 0,1.799988 0,2.674988l0,0.756012l0,0.978363" id="svg_52" stroke-linecap="null" stroke-linejoin="null" stroke-dasharray="null" stroke-width="12" stroke="#00ffff" fill="none"/>
  <path opacity="0.7" d="m528.75,163.5c0,0.899994 0,1.725006 0,2.625c0,0.899994 0,1.725006 0,2.699997c0,0.900009 0,1.725006 0,2.625c0,0.900009 0,1.800003 0,2.699997c0,0.900009 0,1.725006 0,2.625c0,0.975006 0,1.800003 0,2.703384c0,0.884628 0,1.658615 0,2.620621c0,0.975998 0,1.800995 0,2.701004c0,0.899994 0,1.724991 0,2.699997c0,0.899994 0,1.725006 0,2.625c0,0.899994 0,1.725006 0,2.699997c0,0.900009 0,1.725006 0,2.625c0,0.900009 0,1.800003 0,2.699997c0,0.900009 0,1.725006 0,2.625c0,0.975006 0,1.800003 0,2.700012c0,0.899994 0,1.724991 0,2.625c0,0.974991 0,1.800995 0,2.763c0,0.773987 0,1.658615 0,2.636993c0,0.899994 0,1.725006 0,2.625c0,0.899994 0,1.725006 0,2.699997c0,0.900009 0,1.725006 0,2.625c0,0.900009 0,1.800003 0,2.699997c0,0.900009 0,1.725006 0,2.625c0,0.975006 0,1.800003 0,2.700012c0,0.899994 0,1.724991 0,2.625c0,0.974991 0,1.799988 0,2.699997c0,0.899994 0,1.767868 0,2.569c0,0.966995 0,1.856003 0,2.755997c0,0.899994 0,1.725006 0,2.699997c0,0.900009 0,1.725006 0,2.625c0,0.900009 0,1.800003 0,2.699997c0,0.900009 0,1.725006 0,2.625c0,0.975006 0,1.800003 0,2.700012c0,0.899994 0,1.724991 0,2.625c0,0.975113 0,1.890991 0,2.660492c0,0.931488 0,1.764496 0,2.739502c0,0.899994 0,1.725006 0,2.625c0,0.899994 0.193726,1.657471 0.536987,2.475006c0.358032,0.852753 0.600342,1.712982 0.871887,2.475006c0.30365,0.852112 0.091125,1.799988 0.091125,2.625c0,0.899994 0,1.875 0,2.699982c0,0.899994 0,1.800018 0,2.625c0,0.975006 0,1.875 0,2.700012c0,0.899994 0,1.799988 0,2.625c0,0.975006 -0.167297,1.893799 0.007996,2.699982c0.191895,0.882324 0.67688,1.57724 0.742004,2.475006c0.071167,0.980408 0.524658,1.579285 0.812988,2.389008c0.299316,0.840637 0.489624,1.79126 0.695007,2.635986c0.213379,0.87738 0.67688,1.57724 0.742004,2.475006c0.071167,0.980408 0.436462,1.619476 0.875,2.475006c0.411133,0.802155 0.699768,1.603851 1.05603,2.269012c0.409241,0.764069 0.816772,1.234558 1.428345,1.871613c0.619995,0.645813 0.358215,1.688843 0.919006,2.384369c0.531067,0.658722 1.295532,1.257202 1.702637,2.024994c0.428284,0.807739 0.76532,1.564758 1.518982,2.075012c0.746399,0.505341 1.409119,0.951202 2.028381,1.41449c0.696411,0.521027 1.642517,0.541992 2.432129,0.975006c0.653137,0.358185 1.390137,0.548431 2.107361,1.013885c0.801941,0.520416 1.48999,1.076874 2.281128,1.507629c0.845459,0.460327 1.379761,0.977081 2.176025,1.446106c0.74707,0.440063 1.819702,0.177155 2.599976,0.392883c0.786072,0.217346 1.685181,0.386566 2.575012,0.652008c0.828918,0.247253 1.365601,1.238342 2.174988,1.457367c0.870605,0.235596 1.675171,0.445282 2.400024,0.805115c0.781616,0.388 1.728271,0.63678 2.55011,0.710632c0.927185,0.083344 1.561584,0.522766 2.473877,0.685883c0.826233,0.147736 1.768005,0.099854 2.700989,0.438995c0.838318,0.304718 1.808167,0.015869 2.609375,0.390625c0.77063,0.360443 1.365601,0.734375 2.265625,0.734375c0.900024,0 1.724976,0 2.700012,0c0.899963,0 1.724976,0 2.625,0c0.899963,0 1.799988,0 2.700989,0c0.840027,0 1.736023,0 2.620605,0c0.978394,0 1.803406,0 2.703369,0c0.900024,0 1.725037,0 2.625,0l0.975037,0l0.825012,0" id="svg_55" stroke-linecap="null" stroke-linejoin="null" stroke-dasharray="null" stroke-width="12" stroke="#00ffff" fill="none"/>
  <path opacity="0.7" d="m644.25,165c0,0.975006 0,1.800003 0,2.699997c0,0.900009 0,1.800003 0,2.699997c0,0.900009 0,1.725006 0,2.625c0,0.975006 0,1.800003 0,2.700012c0,0.899994 0,1.724991 0,2.625c0,0.974991 0,1.799988 0,2.699997c0,0.899994 0,1.724991 0,2.699997c0,0.899994 0,1.725006 0,2.625c0,0.899994 0,1.725006 0,2.699997c0,0.900009 0,1.725006 0,2.625c0,0.900009 0,1.800003 0,2.699997c0,0.900009 0,1.725006 0,2.625c0,0.975006 0,1.800003 0,2.700012c0,0.899994 0,1.724991 0,2.625c0,0.974991 0,1.799988 0,2.699997c0,0.840622 0,1.819 0,2.683868c0,0.916122 0,1.741135 0,2.641129c0,0.899994 0,1.725006 0,2.699997c0,0.900009 0,1.725006 0,2.625c0,0.900009 0,1.800003 0,2.701004c0,0.839996 0,1.735992 0,2.620621c0,0.978378 0,1.803375 0,2.703384c0,0.899994 -0.133728,1.734985 0,2.625c0.133728,0.890244 0.748291,1.428375 0.75,2.399994c0.001404,0.824997 0,1.725006 0,2.625c0,0.824997 -0.197632,1.775574 0.125,2.625c0.320068,0.842651 0.535461,1.684616 0.889526,2.475006c0.356018,0.794769 0.485474,1.574997 0.485474,2.474991c0,0.900009 0,1.800003 0,2.699997c0,0.900009 0,1.725006 0,2.625c0,0.975006 0,1.800003 0,2.700012c0,0.899994 0,1.724991 0,2.625c0,0.975113 0,1.890991 0,2.660492c0,0.958496 0,1.858505 0,2.723373c0,0.916122 0,1.741135 0,2.641129c0,0.899994 0,1.725006 0,2.700012c0,0.899994 0,1.733002 0,2.66449c0,0.885498 0,1.760498 0,2.660492c0,0.899994 0.215088,1.761719 -0.042847,2.625c-0.249329,0.834412 -0.704834,1.575012 -0.707153,2.550018c-0.002136,0.899994 -0.471313,1.565338 -0.723022,2.474976c-0.220154,0.795563 -0.026978,1.677002 -0.026978,2.569c0,0.96701 0.191406,1.880005 -0.015625,2.756012c-0.191284,0.809357 -0.535034,1.609711 -0.777222,2.399994c-0.255188,0.832642 -0.706665,1.575012 -0.707153,2.550018c-0.000427,0.899994 0,1.724976 0,2.625c0,0.899994 0,1.799988 0,2.699982c0,0.899994 -0.051392,1.707947 -0.43103,2.550018c-0.343994,0.762939 -0.179016,1.709625 -0.484985,2.533875c-0.339294,0.914001 -0.877686,1.619232 -1.242981,2.341125c-0.396973,0.784485 -0.635193,1.597778 -0.848999,2.474976c-0.194763,0.799042 -0.791443,1.637329 -1.267029,2.167633c-0.644714,0.718872 -0.626282,1.506744 -0.982971,2.324371c-0.339417,0.778076 -1.025208,1.317993 -1.429016,2.108002c-0.404541,0.791504 -0.895813,1.602966 -1.638,2.009003c-0.771667,0.42215 -1.5,0.916046 -2.024963,1.44101c-0.675049,0.675018 -1.277405,1.434052 -1.950012,1.941986c-0.742126,0.560455 -1.434937,0.872223 -2.171631,1.211395c-0.702454,0.323456 -1.089966,1.155914 -1.878357,1.559601c-0.789734,0.404358 -1.684509,0.617401 -2.381042,1.006012c-0.658875,0.367615 -1.604065,0.303467 -2.419006,0.432007c-0.85968,0.13559 -1.560852,0.8862 -2.230957,1.171997c-0.944458,0.402802 -1.821167,0.264954 -2.718994,0.326996c-0.906494,0.062653 -1.691223,0.527405 -2.475037,0.915985c-0.804077,0.398621 -1.595459,0.401123 -2.474976,0.59201c-0.882446,0.191528 -1.57489,0.734192 -2.427002,0.742004c-0.891968,0.008179 -1.859009,0 -2.747986,0c-0.825012,0 -1.725037,0 -2.625,0c-0.900024,0 -1.800049,0 -2.700012,0c-0.825012,0 -1.725037,0 -2.700012,0l-0.825012,0" id="svg_56" stroke-linecap="null" stroke-linejoin="null" stroke-dasharray="null" stroke-width="12" stroke="#00ffff" fill="none"/>
  <path opacity="0.7" d="m771,162.75c1.575012,0 2.474976,0 3.375,0c0.825012,0 1.692871,-0.001678 2.625,0c0.932129,0.001694 1.640564,0.457779 2.474976,0.707123c0.863342,0.25798 1.800049,0.042877 2.625,0.042877c1.025024,0 1.808044,0 2.699036,0c0.836975,0 1.750977,0 2.690247,0c0.852722,0 1.48877,0 2.760742,0c0.839233,0 1.583984,0 2.5,0c0.883972,0 1.671997,0 2.710999,0c0.90802,0 1.772888,0 2.689026,0c0.899963,0 1.799988,0 2.625,0c0.974976,0 1.875,0 2.703369,0c0.884583,0 1.65863,0 2.620605,0c0.976013,0 1.875977,0 2.700989,0c0.900024,0 1.799988,0 2.700012,0c0.900024,0 1.799988,0 2.640625,0c0.848877,0 1.843262,0 2.684387,0c0.899963,0 1.799988,0 2.625,0c0.867859,0 1.799988,0 2.732117,0c0.875854,0 1.680847,0 2.692871,0c0.875,0 1.776001,0 2.616028,0c0.76947,0 1.780579,0 2.608948,0c0.975159,0 1.891052,0 2.660522,0c0.958496,0 1.858521,0 2.723389,0c0.916138,0 1.816101,0 2.641113,0c0.900024,0 1.875,0 2.700012,0c0.899963,0 1.799988,0 2.625,0c0.899963,0 1.875,0 2.700012,0l0.899963,0l0.900024,0l0.825012,0" id="svg_57" stroke-linecap="null" stroke-linejoin="null" stroke-dasharray="null" stroke-width="12" stroke="#00ffff" fill="none"/>
  <path opacity="0.7" d="m849.75,315c-0.900024,0 -1.724976,0 -2.640625,0c-0.848877,0 -1.734375,0 -2.684387,0c-0.899963,0 -1.724976,0 -2.625,0c-0.899963,0 -1.709351,-0.299744 -2.549988,-0.625c-0.778198,-0.301117 -1.724976,-0.125 -2.625,-0.125c-0.825012,0 -1.724976,0 -2.700012,0c-0.825012,0 -1.732971,0 -2.66449,0c-0.885498,0 -1.760498,0 -2.660522,0c-0.824951,0 -1.724976,0 -2.625,0c-0.824951,0 -1.799988,0 -2.699951,0c-0.825012,0 -1.725037,0 -2.625,0c-0.900024,0 -1.802063,-0.054962 -2.635132,0.003387c-0.895996,0.062775 -1.784302,0.33371 -2.582153,0.482117c-1.062256,0.197571 -1.797424,0.25 -2.667725,0.263489c-0.91864,0.014221 -1.890015,0.001007 -2.765015,0.001007c-0.900024,0 -1.724976,0 -2.625,0c-0.900024,0 -1.692871,0 -2.640625,0c-0.884399,0 -1.784363,0 -2.68103,0c-0.928345,0 -1.720764,-0.07251 -2.56897,0.015625c-1.046448,0.108734 -1.716248,0.592377 -2.676392,0.726379c-0.825073,0.115173 -1.807983,0.007996 -2.708008,0.007996c-0.824951,0 -1.724976,0 -2.625,0c-0.824951,0 -1.799988,0 -2.699951,0c-0.825012,0 -1.752014,0 -2.644043,0c-0.86499,0 -1.755981,0 -2.539001,0c-1.041992,0 -1.791992,0 -2.68396,0c-0.994019,0 -1.882996,0 -2.78302,0c-0.825012,0 -1.724976,0 -2.700012,0c-0.825012,0 -1.724976,0 -2.625,0l-0.835999,0" id="svg_58" stroke-linecap="null" stroke-linejoin="null" stroke-dasharray="null" stroke-width="12" stroke="#00ffff" fill="none"/>
  <path opacity="0.7" d="m810,224.25c0,-0.975006 0,-1.800003 0,-2.699997c0,-0.900009 -0.304932,-1.707352 -0.625,-2.550003c-0.322632,-0.849426 -0.125,-1.725006 -0.125,-2.625c0,-0.899994 0,-1.725006 0,-2.699997c0,-0.900009 0,-1.725006 0,-2.625c0,-0.900009 0,-1.800003 0,-2.699997c0,-0.900009 0,-1.725006 0,-2.625c0,-0.975006 0,-1.800003 0,-2.700012c0,-0.899994 0,-1.724991 0,-2.625c0,-0.974991 0,-1.799988 0,-2.699997c0,-0.899994 0,-1.724991 0,-2.699997c0,-0.899994 0,-1.725006 0,-2.625c0,-0.899994 0,-1.725006 0,-2.699997c0,-0.900009 0,-1.725006 0,-2.625c0,-0.900009 0,-1.800003 0,-2.699997c0,-0.900009 0,-1.725006 0,-2.625c0,-0.975006 0,-1.800003 0,-2.700012c0,-0.899994 0,-1.724991 0,-2.625c0,-0.974991 0,-1.799988 0,-2.699997c0,-0.899994 0,-1.724991 0,-2.699997l0,-0.899994" id="svg_59" stroke-linecap="null" stroke-linejoin="null" stroke-dasharray="null" stroke-width="12" stroke="#00ffff" fill="none"/>
  <path opacity="0.7" d="m809.25,219.75c0,1.574997 0,2.475006 0,3.375c0,0.824997 0,1.725006 0,2.699997c0,0.824997 0.182678,1.749039 -0.015625,2.550003c-0.221985,0.896606 -0.732666,1.649994 -0.734375,2.475006c-0.001953,0.974991 0,1.875 0,2.699997c0,0.899994 0,1.800003 0,2.699997c0,0.899994 0,1.800003 0,2.625c0,0.899994 0,1.875 0,2.699997c0,0.900009 0.016113,1.799774 0.375,2.550003c0.394531,0.824738 0.959351,1.531723 1.121643,2.399994c0.145691,0.779388 0.003357,1.725006 0.003357,2.657135c0,0.867874 0,1.767868 0,2.667877c0,0.899994 0,1.799988 0,2.699997c0,0.824997 0.129456,1.680222 0.485474,2.474991c0.354065,0.790405 0.264526,1.800018 0.264526,2.625c0,0.899994 0,1.800018 0,2.667877c0,0.801117 0,1.768127 0,2.657135c0,0.899994 0,1.799988 0,2.625c0,0.975006 0,1.878357 0,2.763c0,0.773987 0,1.735992 0,2.636993c0,0.899994 0,1.799988 0,2.625c0,0.899994 0,1.875 0,2.700012c0,0.899994 0,1.799988 0,2.625c0,0.867859 0,1.799988 0,2.732117c0,0.867859 0,1.767883 0,2.592865c0,0.975006 0,1.875 0,2.700012c0,0.899994 0,1.799988 0,2.625c0,0.975006 0,1.875 0,2.699982c0,0.900024 0,1.800018 0,2.700012c0,0.899994 0,1.799988 0,2.625c0,0.899994 0,1.875 0,2.700012c0,0.899994 0,1.799988 0,2.625c0,0.899994 0,1.875 0,2.699982l0,0.899994l0,0.900024l0,0.824982" id="svg_60" stroke-linecap="null" stroke-linejoin="null" stroke-dasharray="null" stroke-width="12" stroke="#00ffff" fill="none"/>
 </g>
</svg>